<svg xmlns="http://www.w3.org/2000/svg" xmlns:xlink="http://www.w3.org/1999/xlink" fill="none" version="1.1" width="714" height="180" viewBox="0 0 714 180"><path d="M130.93546,152.30901C118.72523,160.34337,104.428947,164.625,89.8125,164.625C48.494694,164.625,15,131.13031,15,89.8125C15,48.494694,48.494694,15,89.8125,15C131.13031,15,164.625,48.494694,164.625,89.8125C164.625,103.788857,160.70988,117.48576,153.32341,129.35077L132.2739,108.302429C134.81404,102.469078,136.125,96.174911,136.125,89.8125C136.125,64.23481000000001,115.39019,43.5,89.8125,43.5C64.23481000000001,43.5,43.5,64.23481000000001,43.5,89.8125C43.5,115.39019,64.23481000000001,136.12501,89.8125,136.12501C103.034737,136.12501,115.62649,130.47346,124.41476,120.59451L144.58856,140.7683L144.58678,140.77022L155.845,152.02788L143.25008,164.62363L130.93546,152.30901ZM264.375,164.62503L292.875,164.62503L292.875,114.75L328.5,114.75C356.0452,114.75,378.375,92.420204,378.375,64.875C378.375,37.329796,356.0452,15,328.5,15L264.375,15L264.375,164.62503ZM292.875,86.25L328.5,86.25C340.30508,86.25,349.875,76.680088,349.875,64.875C349.875,53.069912,340.30508,43.5,328.5,43.5L292.875,43.5L292.875,86.25ZM463.875,68.647449L463.875,50.625L492.375,50.625L492.375,164.625L463.875,164.625L463.84912,146.64258C461.25757,150.2164,458.03113,153.34647,454.44693,155.90149Q448.84927,159.88861,441.99609,162.258Q435.14288,164.62431,427.35126,164.625Q413.58926,164.625,402.51492,157.1981Q391.44058,149.76845,384.90778,136.86743Q378.375,123.96277,378.375,107.537209Q378.375,90.907997,384.93066,78.068539Q391.48959,65.228706,402.85822,57.928646Q414.22687,50.625408,428.66568,50.625Q436.83984,50.625,443.62769,52.955719Q450.41876,55.283157,455.54883,59.461632C458.7771,62.087273,461.59698,65.191776,463.875,68.647449ZM526.3749399999999,159.57462Q538.60114,164.625,554.37317,164.625Q567.13434,164.62439,577.27356,160.11534Q587.41272,155.60623,593.33136,147.683Q599.25,139.75977,599.25,129.62412999999998Q599.25006,123.84238,597.54858,119.06448Q595.84705,114.283424,592.0918,110.584198Q587.88458,106.197998,580.80609,102.864807Q573.72766,99.528442,563.50873,96.833374Q555.61609,94.850876,550.97687,93.147026Q546.34094,91.443108,544.16425,90.108536Q541.95428,88.689804,540.82434,86.66851Q539.69775,84.64724,539.56818,82.357086Q539.56824,79.973228,540.55518,78.091217Q541.54218,76.205872,543.44971,74.91016400000001Q545.3573,73.614429,548.18866,72.986012Q551.02002,72.357563,554.65894,72.357563Q558.86292,72.357563,563.87762,74.05817400000001Q568.89569,75.755886,573.68115,78.64206300000001Q578.46655,81.528351,582.34143,85.062378L598.52887,67.556877Q593.23834,62.328819,586.10669,58.509727Q578.9751,54.690674,570.7135,52.65966Q562.45526,50.625,553.59552,50.625Q544.96844,50.625542,537.09241,52.986961Q529.2196,55.348011,523.1746800000001,59.75988Q517.12976,64.168751,513.67361,70.232643Q510.21741,76.296906,510.21741,83.786072Q510.21741,90.027824,512.2445700000001,95.136139Q514.27179,100.240967,518.20648,104.422852Q522.70612,109.078079,530.20331,112.693085Q537.7005,116.30752,548.46777,119.01555Q555.61603,120.80061,560.10571,122.36194Q564.5954,123.9231,566.63916,125.13134Q570.43103,127.72308,570.43103,132.22565Q570.43103,134.60974,569.44403,136.51767Q568.46033,138.42264,566.59265,139.84466Q564.72498,141.26625,562.08966,141.95946Q559.45435,142.64949000000001,556.28735,142.64949000000001Q548.12219,142.64973,540.07666,139.59834Q532.03113,136.54674,525.48431,129.85442L506.625,145.59688Q514.1521,154.52461,526.3749399999999,159.57462ZM626.12494,159.57462Q638.35114,164.625,654.12317,164.625Q666.88434,164.62439,677.02356,160.11534Q687.16272,155.60623,693.08136,147.683Q699,139.75977,699,129.62412999999998Q699.00006,123.84238,697.29858,119.06448Q695.59705,114.283424,691.8418,110.584198Q687.63458,106.197998,680.55609,102.864807Q673.47766,99.528442,663.25873,96.833374Q655.36609,94.850876,650.72687,93.147026Q646.09094,91.443108,643.91425,90.108536Q641.70428,88.689804,640.57434,86.66851Q639.44775,84.64724,639.31818,82.357086Q639.31824,79.973228,640.30518,78.091217Q641.29218,76.205872,643.19971,74.91016400000001Q645.1073,73.614429,647.93866,72.986012Q650.77002,72.357563,654.40894,72.357563Q658.61292,72.357563,663.62762,74.05817400000001Q668.64569,75.755886,673.43115,78.64206300000001Q678.21655,81.528351,682.09143,85.062378L698.27887,67.556877Q692.98834,62.328819,685.85669,58.509727Q678.7251,54.690674,670.4635,52.65966Q662.20526,50.625,653.34552,50.625Q644.71844,50.625542,636.84241,52.986961Q628.9696,55.348011,622.92468,59.75988Q616.87976,64.168751,613.42358,70.232643Q609.96741,76.296906,609.96741,83.786072Q609.96741,90.027824,611.99457,95.136139Q614.02179,100.240967,617.95648,104.422852Q622.45612,109.078079,629.95331,112.693085Q637.4505,116.30752,648.21777,119.01555Q655.36603,120.80061,659.85571,122.36194Q664.3454,123.9231,666.38916,125.13134Q670.18103,127.72308,670.18103,132.22565Q670.18103,134.60974,669.19403,136.51767Q668.21033,138.42264,666.34265,139.84466Q664.47498,141.26625,661.83966,141.95946Q659.20435,142.64949000000001,656.03735,142.64949000000001Q647.87219,142.64973,639.82666,139.59834Q631.78113,136.54674,625.23431,129.85442L606.375,145.59688Q613.9021,154.52461,626.12494,159.57462ZM243,75.5625L186,75.5625L186,104.0625L243,104.0625L243,75.5625ZM463.87503,107.625015C463.87503,123.36514,451.11514,136.12502999999998,435.375,136.12502999999998C419.63489,136.12502999999998,406.875,123.36514,406.875,107.625015C406.875,91.884888,419.63489,79.125,435.375,79.125C451.11514,79.125,463.87503,91.884888,463.87503,107.625015Z" fill-rule="evenodd" fill="#000000" fill-opacity="1"/></svg>