<svg width="56" height="55" viewBox="0 0 56 55" fill="none" xmlns="http://www.w3.org/2000/svg">
<path d="M35.2744 31.8164C38.3553 31.8164 40.2998 31.8033 41.9707 32.1357C48.5554 33.4455 53.7037 38.5931 55.0137 45.1777C55.3459 46.8484 55.332 48.7933 55.332 51.874C55.332 53.402 54.0934 54.6406 52.5654 54.6406C51.0374 54.6406 49.7988 53.402 49.7988 51.874C49.7988 48.5286 49.786 47.2593 49.5869 46.2578C48.7138 41.868 45.2814 38.4348 40.8916 37.5615C39.8901 37.3623 38.6202 37.3496 35.2744 37.3496H20.0576C16.7125 37.3496 15.4429 37.3624 14.4414 37.5615C10.0515 38.4349 6.61832 41.8678 5.74512 46.2578C5.54602 47.2593 5.5332 48.5286 5.5332 51.874C5.5332 53.402 4.29455 54.6406 2.7666 54.6406C1.23872 54.6406 0 53.402 0 51.874C-9.92724e-07 48.7933 -0.0129337 46.8484 0.319336 45.1777C1.62927 38.5932 6.77678 33.4455 13.3613 32.1357C15.032 31.8033 16.9769 31.8164 20.0576 31.8164H35.2744ZM27.6689 0C35.3087 0 41.502 6.19326 41.502 13.833C41.5019 21.4728 35.3087 27.666 27.6689 27.666C20.0292 27.666 13.836 21.4728 13.8359 13.833C13.8359 6.19329 20.0292 4.94831e-05 27.6689 0ZM27.6689 5.5332C23.0852 5.53325 19.3691 9.24919 19.3691 13.833C19.3692 18.4168 23.0852 22.1326 27.6689 22.1328C32.2527 22.1328 35.9687 18.4168 35.9688 13.833C35.9688 9.24916 32.2527 5.5332 27.6689 5.5332Z" fill="black"/>
</svg>
