<svg width="55" height="56" viewBox="0 0 55 56" fill="none" xmlns="http://www.w3.org/2000/svg">
<path d="M49.6787 31.8535C52.1217 31.8536 54.1025 33.8341 54.1025 36.2773C54.1025 38.7205 52.1217 40.7011 49.6787 40.7012C48.7873 40.7012 47.9592 40.4349 47.2646 39.9814L39.1367 43.4326C39.1469 43.5543 39.1541 43.6774 39.1543 43.8018C39.1543 43.9948 39.1391 44.1855 39.1152 44.3721L46.5234 47.873C47.3261 47.0564 48.4431 46.5488 49.6787 46.5488C52.1216 46.5489 54.1021 48.5298 54.1025 50.9727C54.1025 53.4157 52.1217 55.3964 49.6787 55.3965C47.3082 55.3965 45.372 53.5329 45.2588 51.1904L37.2754 47.416C36.5554 47.9239 35.6787 48.2256 34.7305 48.2256C32.2874 48.2254 30.3068 46.2448 30.3066 43.8018C30.3066 41.3588 32.2873 39.3781 34.7305 39.3779C35.7519 39.3779 36.6905 39.7278 37.4395 40.3096L45.3076 36.9688C45.2722 36.7436 45.2549 36.5124 45.2549 36.2773C45.2549 33.834 47.2354 31.8535 49.6787 31.8535ZM36.3154 29.5107C37.0171 29.5192 37.5752 30.0943 37.5752 30.7959L37.5742 34.1084C37.5736 34.8348 36.9727 35.4176 36.2461 35.4092L32.6201 35.3955H22.0703C19.2715 35.3955 17.3049 35.3973 15.7588 35.4922C14.2364 35.5857 13.315 35.7625 12.5938 36.0283C9.78416 37.0648 7.56696 39.2812 6.53027 42.0908C6.26435 42.8121 6.08869 43.7339 5.99512 45.2559C5.90012 46.8017 5.89844 48.7688 5.89844 51.5674C5.89842 53.1962 4.57804 54.5166 2.94922 54.5166C1.32058 54.5164 2.23019e-05 53.196 1.82638e-07 51.5674C1.31102e-07 48.8415 -0.000291451 46.6631 0.108399 44.8945C0.21855 43.1027 0.449263 41.5365 0.998047 40.0488C2.632 35.6205 6.12332 32.1288 10.5518 30.4951C12.0394 29.9465 13.6057 29.7156 15.3975 29.6055C17.1663 29.4967 19.3443 29.4971 22.0703 29.4971H32.6201L36.3154 29.5107ZM27.3525 0C34.9892 0.000436373 41.1794 6.19329 41.1797 13.8301C41.179 21.4665 34.989 27.6578 27.3525 27.6582C19.7156 27.6582 13.5241 21.4669 13.5234 13.8301C13.5237 6.19303 19.7153 0 27.3525 0ZM27.3525 5.89941C22.973 5.89944 19.422 9.45067 19.4219 13.8301C19.4225 18.2091 22.9731 21.7588 27.3525 21.7588C31.7313 21.7584 35.2806 18.2088 35.2813 13.8301C35.2811 9.45093 31.7315 5.89987 27.3525 5.89941Z" fill="black"/>
</svg>
