<?xml version="1.0" standalone="no"?><!DOCTYPE svg PUBLIC "-//W3C//DTD SVG 1.1//EN" "http://www.w3.org/Graphics/SVG/1.1/DTD/svg11.dtd"><svg class="icon" width="200px" height="200.00px" viewBox="0 0 1024 1024" version="1.1" xmlns="http://www.w3.org/2000/svg"><path d="M756.053333 258.218667a38.4 38.4 0 0 1 66.56 38.144L755.285333 414.293333a465.109333 465.109333 0 0 1 219.52 349.909334 38.4 38.4 0 0 1-38.186666 42.24H87.424a38.357333 38.357333 0 0 1-38.144-42.24 464.810667 464.810667 0 0 1 203.818667-339.84l-73.088-128a38.4 38.4 0 0 1 66.56-38.101334l73.557333 128.64A463.36 463.36 0 0 1 512 345.6c61.738667 0 120.704 12.16 174.634667 34.048l69.376-121.429333zM320 554.709333a64 64 0 1 0 0 128 64 64 0 0 0 0-128z m384 0a64 64 0 1 0 0 128 64 64 0 0 0 0-128z" /></svg>