<svg xmlns="http://www.w3.org/2000/svg" xmlns:xlink="http://www.w3.org/1999/xlink" fill="none" version="1.1" width="1380" height="180" viewBox="0 0 1380 180"><defs><clipPath id="master_svg0_51_33059"><rect x="0" y="0" width="1380" height="180" rx="0"/></clipPath></defs><g clip-path="url(#master_svg0_51_33059)"><path d="M130.93546,152.30901C118.72523,160.34337,104.428947,164.625,89.8125,164.625C48.494694,164.625,15,131.13031,15,89.8125C15,48.494694,48.494694,15,89.8125,15C131.13031,15,164.625,48.494694,164.625,89.8125C164.625,103.788857,160.70988,117.48576,153.32341,129.35077L132.2739,108.302429C134.81404,102.469078,136.125,96.174911,136.125,89.8125C136.125,64.23481000000001,115.39019,43.5,89.8125,43.5C64.23481000000001,43.5,43.5,64.23481000000001,43.5,89.8125C43.5,115.39019,64.23481000000001,136.12501,89.8125,136.12501C103.034737,136.12501,115.62649,130.47346,124.41476,120.59451L144.58856,140.7683L144.58678,140.77022L155.845,152.02788L143.25008,164.62363L130.93546,152.30901ZM264.375,164.62503L292.875,164.62503L292.875,114.75L328.5,114.75C356.0452,114.75,378.375,92.420204,378.375,64.875C378.375,37.329796,356.0452,15,328.5,15L264.375,15L264.375,164.62503ZM292.875,86.25L328.5,86.25C340.30508,86.25,349.875,76.680088,349.875,64.875C349.875,53.069912,340.30508,43.5,328.5,43.5L292.875,43.5L292.875,86.25ZM463.875,68.647449L463.875,50.625L492.375,50.625L492.375,164.625L463.875,164.625L463.84912,146.64258C461.25757,150.2164,458.03113,153.34647,454.44693,155.90149Q448.84927,159.88861,441.99609,162.258Q435.14288,164.62431,427.35126,164.625Q413.58926,164.625,402.51492,157.1981Q391.44058,149.76845,384.90778,136.86743Q378.375,123.96277,378.375,107.537209Q378.375,90.907997,384.93066,78.068539Q391.48959,65.228706,402.85822,57.928646Q414.22687,50.625408,428.66568,50.625Q436.83984,50.625,443.62769,52.955719Q450.41876,55.283157,455.54883,59.461632C458.7771,62.087273,461.59698,65.191776,463.875,68.647449ZM526.3749399999999,159.57462Q538.60114,164.625,554.37317,164.625Q567.13434,164.62439,577.27356,160.11534Q587.41272,155.60623,593.33136,147.683Q599.25,139.75977,599.25,129.62412999999998Q599.25006,123.84238,597.54858,119.06448Q595.84705,114.283424,592.0918,110.584198Q587.88458,106.197998,580.80609,102.864807Q573.72766,99.528442,563.50873,96.833374Q555.61609,94.850876,550.97687,93.147026Q546.34094,91.443108,544.16425,90.108536Q541.95428,88.689804,540.82434,86.66851Q539.69775,84.64724,539.56818,82.357086Q539.56824,79.973228,540.55518,78.091217Q541.54218,76.205872,543.44971,74.91016400000001Q545.3573,73.614429,548.18866,72.986012Q551.02002,72.357563,554.65894,72.357563Q558.86292,72.357563,563.87762,74.05817400000001Q568.89569,75.755886,573.68115,78.64206300000001Q578.46655,81.528351,582.34143,85.062378L598.52887,67.556877Q593.23834,62.328819,586.10669,58.509727Q578.9751,54.690674,570.7135,52.65966Q562.45526,50.625,553.59552,50.625Q544.96844,50.625542,537.09241,52.986961Q529.2196,55.348011,523.1746800000001,59.75988Q517.12976,64.168751,513.67361,70.232643Q510.21741,76.296906,510.21741,83.786072Q510.21741,90.027824,512.2445700000001,95.136139Q514.27179,100.240967,518.20648,104.422852Q522.70612,109.078079,530.20331,112.693085Q537.7005,116.30752,548.46777,119.01555Q555.61603,120.80061,560.10571,122.36194Q564.5954,123.9231,566.63916,125.13134Q570.43103,127.72308,570.43103,132.22565Q570.43103,134.60974,569.44403,136.51767Q568.46033,138.42264,566.59265,139.84466Q564.72498,141.26625,562.08966,141.95946Q559.45435,142.64949000000001,556.28735,142.64949000000001Q548.12219,142.64973,540.07666,139.59834Q532.03113,136.54674,525.48431,129.85442L506.625,145.59688Q514.1521,154.52461,526.3749399999999,159.57462ZM626.12494,159.57462Q638.35114,164.625,654.12317,164.625Q666.88434,164.62439,677.02356,160.11534Q687.16272,155.60623,693.08136,147.683Q699,139.75977,699,129.62412999999998Q699.00006,123.84238,697.29858,119.06448Q695.59705,114.283424,691.8418,110.584198Q687.63458,106.197998,680.55609,102.864807Q673.47766,99.528442,663.25873,96.833374Q655.36609,94.850876,650.72687,93.147026Q646.09094,91.443108,643.91425,90.108536Q641.70428,88.689804,640.57434,86.66851Q639.44775,84.64724,639.31818,82.357086Q639.31824,79.973228,640.30518,78.091217Q641.29218,76.205872,643.19971,74.91016400000001Q645.1073,73.614429,647.93866,72.986012Q650.77002,72.357563,654.40894,72.357563Q658.61292,72.357563,663.62762,74.05817400000001Q668.64569,75.755886,673.43115,78.64206300000001Q678.21655,81.528351,682.09143,85.062378L698.27887,67.556877Q692.98834,62.328819,685.85669,58.509727Q678.7251,54.690674,670.4635,52.65966Q662.20526,50.625,653.34552,50.625Q644.71844,50.625542,636.84241,52.986961Q628.9696,55.348011,622.92468,59.75988Q616.87976,64.168751,613.42358,70.232643Q609.96741,76.296906,609.96741,83.786072Q609.96741,90.027824,611.99457,95.136139Q614.02179,100.240967,617.95648,104.422852Q622.45612,109.078079,629.95331,112.693085Q637.4505,116.30752,648.21777,119.01555Q655.36603,120.80061,659.85571,122.36194Q664.3454,123.9231,666.38916,125.13134Q670.18103,127.72308,670.18103,132.22565Q670.18103,134.60974,669.19403,136.51767Q668.21033,138.42264,666.34265,139.84466Q664.47498,141.26625,661.83966,141.95946Q659.20435,142.64949000000001,656.03735,142.64949000000001Q647.87219,142.64973,639.82666,139.59834Q631.78113,136.54674,625.23431,129.85442L606.375,145.59688Q613.9021,154.52461,626.12494,159.57462ZM243,75.5625L186,75.5625L186,104.0625L243,104.0625L243,75.5625ZM463.87503,107.625015C463.87503,123.36514,451.11514,136.12502999999998,435.375,136.12502999999998C419.63489,136.12502999999998,406.875,123.36514,406.875,107.625015C406.875,91.884888,419.63489,79.125,435.375,79.125C451.11514,79.125,463.87503,91.884888,463.87503,107.625015Z" fill-rule="evenodd" fill="#000000" fill-opacity="1"/><rect x="766" y="40" width="3" height="100" rx="0" fill="#CCCCCC" fill-opacity="1"/><g><path d="M951.34,85.400002L951.34,98L920.959999,98L920.959999,153.72L907.8000030000001,153.72L907.8000030000001,98L872.380001,98Q871.540001,111.44,868.459999,120.47Q865.380001,129.5,859.220001,137.34Q853.060001,145.17999,841.719999,155.25999L831.92,145.60001Q842.280001,136.92,847.74,130.34Q853.200001,123.75998999999999,855.790001,116.34Q858.380001,108.92,859.080002,98L827.3000002,98L827.3000002,85.400002L859.5,85.400002L859.5,83.580002L859.5,48.720001L834.72,48.720001L834.72,36.120003L944.2,36.120003L944.2,48.720001L920.959999,48.720001L920.959999,85.400002L951.34,85.400002ZM872.799999,85.400002L907.8000030000001,85.400002L907.8000030000001,48.720001L872.799999,48.720001L872.799999,82.32L872.799999,85.400002ZM1091.89999,143.5L1083.9199800000001,155.12Q1065.44,141.96001,1053.53999,126.56Q1041.5,141.25999,1021.89999,155.12L1013.35999,145.32001Q1011.39999,146.72,1008.53,147.49001Q1005.66,148.25999,1001.17999,148.67999L993.89999,149.38L990.12,136.64L997.9599900000001,135.8Q1003,135.24001,1004.75,133.42Q1006.5,131.60001,1006.78,127.12Q1007.34,120.12,1007.89999,108.85Q1008.4599900000001,97.58,1008.73999,90.720001L991.94,90.720001Q991.23999,106.12,989.14,116.27Q987.03999,126.41999999999999,983.32999,134.61Q979.62,142.8,972.62,154.14L961.42,146.86Q968.7,136.08,972.40999,127.25998999999999Q976.12,118.44,977.87,106.47Q979.62,94.5,980.03999,74.620003Q980.4599900000001,65.800003,980.5999899999999,60.480002999999996L968.28,60.480002999999996L968.28,47.879997L994.17999,47.879997Q991.79999,37.379997,989.14,29.260002L1001.03999,27.440002Q1003.42,33.739998,1006.64,47.879997L1028.2,47.879997L1028.2,60.480002999999996L992.78,60.480002999999996Q992.78,63,992.64,64.400002Q992.64,72.659996,992.35999,76.580002L992.35999,78.259995L1019.94,78.259995Q1027.07999,67.620003,1032.95999,53.480003Q1038.84,39.339996,1041.35999,26.879997000000003L1054.23999,28.979996Q1051.85999,38.919998,1048.07999,49L1088.67999,49L1088.67999,61.879997L1077.47998,61.879997Q1075.51999,78.68,1071.60001,91.699997Q1067.67999,104.72,1061.10001,115.64Q1073,130.75999,1091.89999,143.5ZM1042.89999,61.879997L1040.94,66.220001Q1043.60001,87.639999,1053.39999,104.16Q1058.16,95.34,1060.95999,84.979996Q1063.75999,74.620003,1065.01999,61.879997L1042.89999,61.879997ZM1045.84,115.64Q1036.17999,99.54,1032.25999,81.900002L1030.16,84.979996Q1028.89999,86.940002,1027.35999,89.040001L1020.64,82.040001Q1020.07999,93.94,1019.51999,108.5Q1018.9599900000001,123.06,1018.67999,131.46001Q1018.53999,138.60001,1016.29999,142.24001Q1035.48,129.08,1045.84,115.64ZM1171.6999799999999,97.16L1226.29999,97.16L1226.29999,109.76L1171.6999799999999,109.76L1171.6999799999999,152.88L1158.53998,152.88L1158.53998,109.76L1103.66,109.76L1103.66,97.16L1158.53998,97.16L1158.53998,47.040001L1111.07999,47.040001L1111.07999,34.300003L1219.01999,34.300003L1219.01999,47.040001L1171.6999799999999,47.040001L1171.6999799999999,97.16ZM1181.35999,85.119995Q1186.39999,79.520004,1193.39999,69.230003Q1200.39999,58.94000200000001,1203.75998,52.5L1213.97998,59.5Q1210.34,65.800003,1203.26999,76.160004Q1196.1999799999999,86.520004,1191.44,92.4L1181.35999,85.119995ZM1125.63998,52.639999Q1130.39999,58.800003000000004,1137.19,68.529999Q1143.97998,78.259995,1148.17999,84.979996L1138.23999,92.54Q1134.17999,85.68,1127.38998,75.669998Q1120.59998,65.659996,1115.97998,59.639999L1125.63998,52.639999ZM1323.59998,39.059998Q1331.29996,46.059998,1342.56995,57.75Q1353.83997,69.440002,1360.69995,77.839996L1352.1599700000002,87.639999Q1348.37994,82.880005,1344.59998,78.540001Q1303.85999,79.520004,1276.27997,80.779999Q1258.63995,81.479996,1247.85995,82.599998L1244.63995,69.440002Q1249.25998,68.599998,1251.56998,67.760002Q1253.87997,66.919998,1255.97998,65.239998Q1263.53998,59.639999,1275.22998,46.970001Q1286.9199800000001,34.300003,1293.07996,24.919998L1304.4199800000001,31.5Q1297.4199800000001,41.159996,1287.61996,51.870003Q1277.81998,62.58000199999999,1271.09998,68.040001L1333.2599500000001,65.940002Q1322.75998,54.599998,1314.63995,47.18L1323.59998,39.059998ZM1269.97998,153.86L1257.09998,153.86L1257.09998,94.92L1348.37994,94.92L1348.37994,153.86L1335.35999,153.86L1335.35999,147.14L1269.97998,147.14L1269.97998,153.86ZM1335.35999,135.24001L1335.35999,107.38L1269.97998,107.38L1269.97998,135.24001L1335.35999,135.24001Z" fill="#000000" fill-opacity="1"/></g></g></svg>