<svg width="71" height="72" viewBox="0 0 71 72" fill="none" xmlns="http://www.w3.org/2000/svg">
<g clip-path="url(#clip0_106_268)">
<path d="M34.7904 0C40.1777 0 45.3443 2.12802 49.1537 5.91591C52.9631 9.70381 55.1032 14.8413 55.1032 20.1982C55.1032 25.5551 52.9631 30.6926 49.1537 34.4805C46.3495 37.2688 41.4971 40.5223 34.822 40.5223C27.2658 40.5223 20.0191 43.507 14.676 48.8199C9.33297 54.1328 6.33128 61.3387 6.33128 68.8522C6.33128 69.6871 5.99776 70.4877 5.40408 71.078C4.81041 71.6684 4.00522 72 3.16564 72C2.32606 72 1.52087 71.6684 0.927194 71.078C0.333522 70.4877 0 69.6871 0 68.8522C0.000133165 61.7916 2.17006 54.8996 6.21911 49.0994C10.2682 43.2992 16.003 38.8678 22.6554 36.3987C19.233 33.8625 16.701 30.3188 15.4189 26.2706C14.1368 22.2224 14.1697 17.8754 15.513 13.8469C16.8563 9.81835 19.4416 6.31292 22.902 3.82825C26.3625 1.34358 30.5221 0.00594852 34.7904 0.00524629V0ZM34.7904 6.29554C31.0822 6.29554 27.526 7.76028 24.9039 10.3675C22.2819 12.9748 20.8088 16.511 20.8088 20.1982C20.8088 23.8854 22.2819 27.4216 24.9039 30.0289C27.526 32.6361 31.0822 34.1008 34.7904 34.1008C38.4985 34.1008 42.0548 32.6361 44.6768 30.0289C47.2989 27.4216 48.7719 23.8854 48.7719 20.1982C48.7719 16.511 47.2989 12.9748 44.6768 10.3675C42.0548 7.76028 38.4985 6.29554 34.7904 6.29554Z" fill="#19191C"/>
<path d="M55.3668 45.224C55.6887 45.224 55.9577 45.4863 55.9577 45.8168V56.5507C55.9572 56.6678 55.9219 56.782 55.8562 56.8791C55.7904 56.9762 55.6973 57.0518 55.5884 57.0963C55.4799 57.1389 55.3613 57.1492 55.247 57.1259C55.1327 57.1026 55.0277 57.0468 54.9447 56.9652L51.5733 53.6285C50.8096 54.5773 50.2855 55.6942 50.0451 56.8858C49.8046 58.0773 49.8548 59.3088 50.1913 60.4772C50.5279 61.6455 51.1411 62.7166 51.9795 63.6009C52.8179 64.4851 53.8572 65.1568 55.0103 65.5595C56.1635 65.9623 57.3969 66.0845 58.6073 65.9159C59.8176 65.7473 60.9698 65.2928 61.9672 64.5904C62.9646 63.8881 63.7783 62.9583 64.3401 61.879C64.9019 60.7997 65.1954 59.6022 65.1961 58.3869C65.1961 56.834 64.9218 55.6326 64.3836 54.7827L64.0882 54.3893C63.5886 53.807 63.3422 53.0512 63.403 52.2882C63.4639 51.5252 63.827 50.8175 64.4126 50.3208C64.9982 49.824 65.7583 49.579 66.5256 49.6395C67.293 49.7 68.0047 50.0611 68.5042 50.6434C70.2612 52.6895 70.9998 55.3178 70.9998 58.3817C71 60.5465 70.4719 62.679 69.4608 64.5961C68.4496 66.5133 66.9857 68.1578 65.1947 69.3886C63.4037 70.6193 61.3391 71.3995 59.1781 71.6621C57.0171 71.9247 54.8243 71.662 52.7879 70.8964C50.7515 70.1308 48.9323 68.8853 47.4866 67.2667C46.0409 65.6482 45.0118 63.7049 44.4876 61.6038C43.9635 59.5027 43.9599 57.3065 44.4773 55.2037C44.9947 53.1009 46.0175 51.1544 47.458 49.5312L44.1499 46.2313C44.0662 46.1487 44.0091 46.0434 43.9856 45.9285C43.9621 45.8137 43.9734 45.6945 44.018 45.586C44.0622 45.4773 44.1381 45.3843 44.2359 45.3189C44.3336 45.2534 44.4489 45.2186 44.5667 45.2188H55.3668V45.224Z" fill="#8CA14F"/>
</g>
<defs>
<clipPath id="clip0_106_268">
<rect width="70.9998" height="72" fill="white"/>
</clipPath>
</defs>
</svg>
