<svg width="52" height="52" viewBox="0 0 52 52" fill="none" xmlns="http://www.w3.org/2000/svg">
<path d="M35.5327 8.65257C40.0126 10.7251 43.6959 14.2014 46.0248 18.5552C48.3538 22.909 49.2018 27.9034 48.4404 32.7824C50.2986 34.2837 51.5289 36.4256 51.89 38.7877C52.251 41.1498 51.7166 43.5616 50.3918 45.5499C49.0669 47.5381 47.0472 48.9592 44.729 49.5343C42.4108 50.1094 39.9614 49.797 37.8616 48.6584C34.293 50.8501 30.186 52.007 25.9987 52C21.8122 52.0065 17.7062 50.8496 14.1384 48.6584C12.0386 49.797 9.58924 50.1094 7.27102 49.5343C4.95281 48.9592 2.9331 47.5381 1.60824 45.5499C0.283383 43.5616 -0.250968 41.1498 0.110047 38.7877C0.471062 36.4256 1.70138 34.2837 3.55956 32.7824C2.79739 27.9033 3.6447 22.9086 5.97323 18.5542C8.30176 14.1999 11.9848 10.7231 16.4647 8.64997C16.6963 6.28125 17.8006 4.08351 19.5627 2.48459C21.3248 0.885669 23.6185 0 25.9974 0C28.3763 0 30.67 0.885669 32.4321 2.48459C34.1942 4.08351 35.2985 6.28125 35.5301 8.64997L35.5327 8.65257ZM22.5989 6.81403C21.9881 7.56817 21.6216 8.52514 21.6216 9.57054C21.62 10.4858 21.9065 11.3784 22.4404 12.1216C22.8448 12.6885 23.3787 13.1505 23.9976 13.4693C24.6165 13.7881 25.3026 13.9544 25.9987 13.9544C26.6948 13.9544 27.3809 13.7881 27.9998 13.4693C28.6187 13.1505 29.1526 12.6885 29.557 12.1216C30.0691 11.4091 30.3732 10.5327 30.3758 9.58614V9.57054C30.3771 8.5665 30.0319 7.59281 29.3985 6.81403C28.9887 6.30697 28.4706 5.89808 27.8824 5.6173C27.2941 5.33652 26.6505 5.19098 25.9987 5.19133C24.6263 5.19133 23.3995 5.82324 22.5989 6.81403ZM34.5112 13.9653C33.7058 15.5296 32.4853 16.8416 30.9838 17.7577C29.4822 18.6737 27.7574 19.1583 25.9987 19.1583C24.24 19.1583 22.5152 18.6737 21.0136 17.7577C19.5121 16.8416 18.2916 15.5296 17.4862 13.9653C14.5457 15.6009 12.1385 18.0495 10.5527 21.0182C8.96699 23.9869 8.2699 27.3499 8.54488 30.7046C10.2877 30.5142 12.0494 30.8062 13.6377 31.5487C15.2261 32.2913 16.5803 33.4558 17.5525 34.9154C18.5248 36.3751 19.0778 38.0737 19.1514 39.8262C19.2249 41.5787 18.8162 43.3178 17.9697 44.8538C20.4517 46.1363 23.2053 46.8034 25.9987 46.799C28.8916 46.799 31.6208 46.0969 34.0251 44.8538C33.1784 43.3176 32.7696 41.5783 32.8433 39.8255C32.9169 38.0727 33.4702 36.3738 34.4428 34.9141C35.4154 33.4544 36.7699 32.2899 38.3587 31.5476C39.9475 30.8053 41.7095 30.5137 43.4525 30.7046C43.7275 27.3499 43.0304 23.9869 41.4447 21.0182C39.8589 18.0495 37.4517 15.6009 34.5112 13.9653ZM42.2361 35.8536C41.6582 35.8817 41.0916 36.0242 40.5691 36.2728C40.0467 36.5214 39.5786 36.8711 39.1921 37.3018C38.8055 37.7325 38.5082 38.2356 38.3172 38.782C38.1262 39.3284 38.0454 39.9072 38.0794 40.4851C38.1134 41.0629 38.2616 41.6283 38.5153 42.1485C38.7691 42.6686 39.1234 43.1333 39.5578 43.5157C39.9922 43.898 40.4981 44.1903 41.0461 44.3758C41.5942 44.5614 42.1735 44.6363 42.7507 44.5964H42.7741C43.9329 44.525 45.0159 43.996 45.7849 43.1257C46.5538 42.2555 46.9457 41.1152 46.8744 39.9558C46.8031 38.7965 46.2743 37.7129 45.4044 36.9436C44.5346 36.1743 43.3949 35.7822 42.2361 35.8536ZM13.6914 41.7411C13.935 41.0792 14.0153 40.3682 13.9253 39.6686C13.8353 38.969 13.5777 38.3015 13.1744 37.7229C12.7712 37.1443 12.2342 36.6717 11.6092 36.3453C10.9842 36.019 10.2896 35.8485 9.58457 35.8484C8.78372 35.8476 7.99798 36.0665 7.3128 36.4813C6.62763 36.8961 6.06925 37.491 5.69841 38.2011C5.32756 38.9113 5.15844 39.7096 5.20943 40.5092C5.26043 41.3088 5.52959 42.0791 5.98764 42.7364C6.4457 43.3936 7.07511 43.9126 7.80742 44.237C8.53973 44.5613 9.34691 44.6785 10.1412 44.5759C10.9354 44.4733 11.6864 44.1548 12.3123 43.655C12.9382 43.1551 13.4152 42.4932 13.6914 41.7411Z" fill="black"/>
</svg>
