<svg width="65" height="74" viewBox="0 0 65 74" fill="none" xmlns="http://www.w3.org/2000/svg">
<g clip-path="url(#clip0_106_260)">
<path d="M32.5 74C54.1667 67.4706 65 56.5882 65 39.1765V15.3964C65.0004 13.4775 64.3698 11.6123 63.206 10.0907C62.0423 8.56903 60.4108 7.47622 58.565 6.98212L32.5 0L6.435 6.98212C4.58923 7.47622 2.95767 8.56903 1.79396 10.0907C0.630242 11.6123 -0.000423265 13.4775 2.13128e-07 15.3964V39.1765C2.13128e-07 56.5882 10.8333 67.4706 32.5 74ZM32.4957 67.1659L31.59 66.8612C14.0487 60.9978 6.5 52.3877 6.5 39.1765V15.3964C6.49911 14.9162 6.65629 14.4493 6.94707 14.0682C7.23784 13.6872 7.64589 13.4134 8.10767 13.2895L32.5 6.76012L56.8967 13.2895C57.2981 13.3973 57.6602 13.6187 57.9399 13.9274C58.2196 14.2361 58.405 14.6191 58.474 15.0307L58.5043 15.3964V39.1765C58.5043 52.3833 50.9557 60.9934 33.4143 66.8612L32.5 67.1659H32.4957Z" fill="#19191C"/>
<path d="M32.243 15.8438C34.9197 15.8429 37.5063 16.8104 39.5253 18.5677C41.5444 20.3249 42.8595 22.7533 43.228 25.4045C43.5965 28.0557 42.9935 30.7506 41.5302 32.9919C40.0669 35.2332 37.8422 36.8694 35.2667 37.5986V41.0416H40.3063C40.7781 41.0415 41.235 41.2068 41.5975 41.5088C41.9599 41.8109 42.205 42.2305 42.2899 42.6946L42.3221 43.0575V45.0733C42.3221 45.6079 42.1098 46.1206 41.7317 46.4987C41.3537 46.8767 40.841 47.0891 40.3063 47.0891H35.2667V53.1366C35.2667 53.6712 35.0544 54.184 34.6763 54.562C34.2983 54.94 33.7855 55.1524 33.2509 55.1524H31.2351C30.7005 55.1524 30.1877 54.94 29.8097 54.562C29.4316 54.184 29.2193 53.6712 29.2193 53.1366V37.6026C26.6462 36.8706 24.4244 35.2332 22.9634 32.9923C21.5023 30.7514 20.9005 28.0579 21.2687 25.4082C21.6369 22.7585 22.9504 20.3312 24.9671 18.5736C26.9838 16.816 29.5679 15.8465 32.243 15.8438ZM32.243 21.8912C30.9064 21.8912 29.6246 22.4222 28.6795 23.3673C27.7344 24.3124 27.2034 25.5942 27.2034 26.9308C27.2034 28.2674 27.7344 29.5492 28.6795 30.4943C29.6246 31.4394 30.9064 31.9704 32.243 31.9704C33.5796 31.9704 34.8614 31.4394 35.8065 30.4943C36.7516 29.5492 37.2826 28.2674 37.2826 26.9308C37.2826 25.5942 36.7516 24.3124 35.8065 23.3673C34.8614 22.4222 33.5796 21.8912 32.243 21.8912Z" fill="#4F7CBF"/>
</g>
<defs>
<clipPath id="clip0_106_260">
<rect width="65" height="74" fill="white"/>
</clipPath>
</defs>
</svg>
