<svg width="69" height="69" viewBox="0 0 69 69" fill="none" xmlns="http://www.w3.org/2000/svg">
<g clip-path="url(#clip0_106_265)">
<path d="M37.1429 0.0028748C37.6021 -0.0160836 38.0604 0.0588779 38.4901 0.223257C38.9199 0.387636 39.3124 0.63804 39.6439 0.95943C39.9754 1.28082 40.2392 1.66656 40.4194 2.09349C40.5996 2.52042 40.6925 2.97972 40.6925 3.44382C40.6925 3.90791 40.5996 4.36721 40.4194 4.79414C40.2392 5.22107 39.9754 5.60681 39.6439 5.9282C39.3124 6.24959 38.9199 6.5 38.4901 6.66438C38.0604 6.82875 37.6021 6.90372 37.1429 6.88476H15.1384C12.9317 6.89083 10.8172 7.77914 9.2574 9.3554C7.69757 10.9317 6.81936 13.0676 6.81485 15.2959V53.7299C6.82088 55.9561 7.70127 58.0891 9.26282 59.6606C10.8244 61.2321 12.9395 62.1138 15.1441 62.1123H53.2037C55.4053 62.1077 57.5155 61.2225 59.0722 59.6504C60.629 58.0783 61.5056 55.9474 61.5101 53.7241V31.9114C61.5461 31.0231 61.9208 30.1833 62.5559 29.5676C63.191 28.952 64.0372 28.6082 64.9176 28.6082C65.7979 28.6082 66.6441 28.952 67.2792 29.5676C67.9143 30.1833 68.289 31.0231 68.325 31.9114V53.7299C68.3242 55.7352 67.9324 57.7207 67.1718 59.573C66.4112 61.4254 65.2967 63.1083 63.892 64.5257C62.4874 65.9432 60.82 67.0673 58.9851 67.834C57.1502 68.6007 55.1837 68.9949 53.198 68.9942H15.1441C11.1316 68.9942 7.28307 67.3861 4.44365 64.5231C1.60423 61.6601 0.00603388 57.7761 0 53.7241V15.2959C0.00452065 11.2414 1.60151 7.35417 4.4406 4.48715C7.27969 1.62014 11.129 0.00743992 15.1441 0.0028748H37.1429ZM45.5543 46.6238C46.4339 46.6601 47.2655 47.0385 47.8751 47.6798C48.4848 48.3211 48.8252 49.1757 48.8252 50.0647C48.8252 50.9537 48.4848 51.8083 47.8751 52.4496C47.2655 53.0909 46.4339 53.4693 45.5543 53.5056H22.1046C21.6454 53.5246 21.1872 53.4496 20.7574 53.2853C20.3276 53.1209 19.9352 52.8705 19.6036 52.5491C19.2721 52.2277 19.0083 51.8419 18.8281 51.415C18.6479 50.9881 18.555 50.5288 18.555 50.0647C18.555 49.6006 18.6479 49.1413 18.8281 48.7144C19.0083 48.2874 19.2721 47.9017 19.6036 47.5803C19.9352 47.2589 20.3276 47.0085 20.7574 46.8441C21.1872 46.6798 21.6454 46.6048 22.1046 46.6238H45.5486H45.5543Z" fill="#19191C"/>
<path d="M64.8725 1.9901C65.1899 2.30998 65.4418 2.68994 65.6136 3.10823C65.7854 3.52653 65.8739 3.97493 65.8739 4.42779C65.8739 4.88064 65.7854 5.32905 65.6136 5.74735C65.4418 6.16564 65.1899 6.5456 64.8725 6.86548L35.4895 37.0722C35.183 37.4174 34.8096 37.6956 34.3925 37.8894C33.9753 38.0832 33.5232 38.1886 33.0642 38.199C32.393 38.2001 31.7364 38.0012 31.1767 37.6272C30.617 37.2531 30.179 36.7206 29.9177 36.0964C29.6563 35.4721 29.5831 34.7838 29.7074 34.1178C29.8316 33.4517 30.1477 32.8375 30.6161 32.352L60.0674 1.99585C60.7062 1.35546 61.5698 0.996094 62.4699 0.996094C63.3701 0.996094 64.2337 1.35546 64.8725 1.99585V1.9901Z" fill="#449292"/>
</g>
<defs>
<clipPath id="clip0_106_265">
<rect width="68.325" height="68.9942" fill="white"/>
</clipPath>
</defs>
</svg>
